# xmcd
#
# Track frame offsets:
#	150
#	22334
#	37946
#	59523
#	79570
#	97808
#	117355
#	141491
#	159254
#	177439
#
# Disc length: 2640 seconds
#
# Revision: 519544463
# Processed by: cddbd v1.5.2PL0 Copyright (c) Steve Scherf et al.
# Submitted via: EZCDAudioConverter 8.0.2.1
#
DISCID=7f0a4e0a
DTITLE=Tuấn Vũ, Hương Lan, Thiên Trang, Phương Dung - Bày Ngày Đợi Mong
DYEAR=1991
DGENRE=Contemporary Pop
TTITLE0=Tuấn Vũ - Nhớ nhau hoài
TTITLE1=Hương Lan - Cho tôi xin giấc mộng bình yên
TTITLE2=Phương Dung - Tàu đêm năm cũ
TTITLE3=Tuấn Vũ - Qua cơn mê
TTITLE4=Thiên Trang - Tình yêu trả lại trăng sao
TTITLE5=Hương Lan - Lý chim quyên
TTITLE6=Tuấn Vũ - Phố đêm
TTITLE7=Phương Dung - 24 giờ phép
TTITLE8=Thiên Trang - Tình lỡ
TTITLE9=Hương Lan - Lý quạ kêu
EXTD=
EXTT0=
EXTT1=
EXTT2=
EXTT3=
EXTT4=
EXTT5=
EXTT6=
EXTT7=
EXTT8=
EXTT9=
PLAYORDER=
